<?xml version="1.0" encoding="UTF-8" standalone="no"?>
<!DOCTYPE svg PUBLIC "-//W3C//DTD SVG 1.1//EN" "http://www.w3.org/Graphics/SVG/1.1/DTD/svg11.dtd">
<svg width="100%" height="100%" viewBox="0 0 2122 2122" version="1.1" xmlns="http://www.w3.org/2000/svg" xmlns:xlink="http://www.w3.org/1999/xlink" xml:space="preserve" xmlns:serif="http://www.serif.com/" style="fill-rule:evenodd;clip-rule:evenodd;stroke-linejoin:round;stroke-miterlimit:2;">
    <g>
        <path d="M1346.34,1589.31L1030.32,1130.16L985.316,1064.8L618.611,532.007L776.351,532.007L1072.91,962.886L1117.91,1028.25L1504.08,1589.31L1346.34,1589.31ZM1569.29,1544.46L1171.26,966.196L1126.26,900.797L841.533,487.149L817.935,452.867L468.066,452.867L553.393,576.864L931.968,1126.92L976.97,1192.25L1281.15,1634.21L1304.75,1668.45L1654.62,1668.45L1569.29,1544.46Z" style="fill:rgb(252,183,43);fill-rule:nonzero;"/>
        <path d="M985.316,1064.8L1030.32,1130.16L976.97,1192.25L567.638,1668.45L466.699,1668.45L931.968,1126.92L985.316,1064.8Z" style="fill:rgb(252,183,43);fill-rule:nonzero;"/>
        <path d="M1612.5,452.867L1171.26,966.196L1117.91,1028.25L1072.91,962.886L1126.26,900.797L1425.15,552.907L1511.56,452.867L1612.5,452.867Z" style="fill:rgb(252,183,43);fill-rule:nonzero;"/>
    </g>
</svg>
